<svg version="1.1" id="Uploaded to svgrepo.com" xmlns="http://www.w3.org/2000/svg" xmlns:xlink="http://www.w3.org/1999/xlink" x="0px" y="0px"
	 width="32px" height="32px" viewBox="0 0 32 32" style="enable-background:new 0 0 32 32;" xml:space="preserve">
<style type="text/css">
	.feather_een{fill:#111918;}
</style>
<path class="feather_een" d="M12,21.5c0-0.276,0.224-0.5,0.5-0.5h7c0.276,0,0.5,0.224,0.5,0.5S19.776,22,19.5,22h-7
	C12.224,22,12,21.776,12,21.5z M12.5,24h7c0.276,0,0.5-0.224,0.5-0.5S19.776,23,19.5,23h-7c-0.276,0-0.5,0.224-0.5,0.5
	S12.224,24,12.5,24z M29,13v13c0,1.657-1.343,3-3,3H6c-1.657,0-3-1.343-3-3V13.723C2.405,13.376,2,12.738,2,12
	c0-0.593,0.264-1.121,0.674-1.487L2.61,10.025C2.395,8.383,3.552,6.876,5.195,6.661l19.83-2.599
	c0.132-0.017,0.264-0.026,0.394-0.026c1.483,0,2.773,1.1,2.971,2.611l0.26,1.983c0.072,0.548-0.314,1.05-0.862,1.121L10.631,12H28
	C28.552,12,29,12.448,29,13z M13.707,13l4,4h4.586l-4-4H13.707z M7.707,13l4,4h4.586l-4-4H7.707z M6.293,13h-0.57
	C5.376,13.595,4.738,14,4,14v3h6.293L6.293,13z M27.318,6.424l-1.739,2.609l2.079-0.272l-0.26-1.983
	C27.382,6.655,27.355,6.537,27.318,6.424z M22.682,5.378l-2.947,4.42l4.525-0.593l2.457-3.684c-0.352-0.303-0.806-0.485-1.298-0.485
	c-0.087,0-0.175,0.006-0.264,0.017L22.682,5.378z M16.838,6.144l-2.947,4.42l4.527-0.593l2.947-4.42L16.838,6.144z M10.994,6.91
	l-2.947,4.42l4.527-0.593l2.947-4.42L10.994,6.91z M3.602,9.896l0.019,0.143C3.744,10.015,3.87,10,4,10
	c0.969,0,1.776,0.689,1.96,1.604l0.771-0.101l2.947-4.42l-4.353,0.57c-0.53,0.069-1.001,0.341-1.326,0.765
	C3.673,8.841,3.532,9.366,3.602,9.896z M4,13c0.551,0,1-0.449,1-1s-0.449-1-1-1s-1,0.449-1,1S3.449,13,4,13z M28,18H4v8
	c0,1.103,0.897,2,2,2h20c1.103,0,2-0.897,2-2V18z M28,16.707L24.293,13h-4.586l4,4H28V16.707z M28,13h-2.293L28,15.293V13z"/>
</svg>